<?xml version="1.0" encoding="UTF-8" standalone="no"?>
<svg
   xmlns:dc="http://purl.org/dc/elements/1.1/"
   xmlns:cc="http://creativecommons.org/ns#"
   xmlns:rdf="http://www.w3.org/1999/02/22-rdf-syntax-ns#"
   xmlns:svg="http://www.w3.org/2000/svg"
   xmlns="http://www.w3.org/2000/svg"
   xmlns:sodipodi="http://sodipodi.sourceforge.net/DTD/sodipodi-0.dtd"
   xmlns:inkscape="http://www.inkscape.org/namespaces/inkscape"
   width="76"
   height="76"
   viewBox="0 0 24 24"
   fill="none"
   stroke="currentColor"
   stroke-width="3"
   stroke-linecap="round"
   stroke-linejoin="round"
   class="feather feather-arrow-down"
   version="1.1"
   id="svg6"
   sodipodi:docname="arrow-down.svg"
   inkscape:version="0.92.4 (5da689c313, 2019-01-14)">
  <metadata
     id="metadata12">
    <rdf:RDF>
      <cc:Work
         rdf:about="">
        <dc:format>image/svg+xml</dc:format>
        <dc:type
           rdf:resource="http://purl.org/dc/dcmitype/StillImage" />
      </cc:Work>
    </rdf:RDF>
  </metadata>
  <defs
     id="defs10" />
  <sodipodi:namedview
     pagecolor="#ffffff"
     bordercolor="#666666"
     borderopacity="1"
     objecttolerance="10"
     gridtolerance="10"
     guidetolerance="10"
     inkscape:pageopacity="0"
     inkscape:pageshadow="2"
     inkscape:window-width="1920"
     inkscape:window-height="1017"
     id="namedview8"
     showgrid="false"
     inkscape:zoom="16"
     inkscape:cx="44.073454"
     inkscape:cy="38.610481"
     inkscape:window-x="2552"
     inkscape:window-y="-8"
     inkscape:window-maximized="1"
     inkscape:current-layer="svg6" />
  <line
     x1="12"
     y1="5"
     x2="12"
     y2="19"
     id="line2" />
  <polyline
     points="19 12 12 19 5 12"
     id="polyline4" />
  <path
     style="fill:#ffffff;fill-opacity:1;stroke-width:0.17078426"
     d="M 37.120268,64.815831 C 36.313875,64.644795 35.526773,64.273191 35.007685,63.818446 34.838911,63.670593 29.588861,58.4284 23.340905,52.169128 12.856414,41.665647 11.962799,40.755732 11.744972,40.361674 11.204389,39.38374 11.000913,38.306433 11.164347,37.287557 c 0.287699,-1.793559 1.557598,-3.24953 3.327006,-3.814495 0.300271,-0.09587 0.588629,-0.134275 1.169862,-0.155788 0.954648,-0.03533 1.44607,0.07069 2.331215,0.502951 l 0.597745,0.291911 7.328378,7.321371 7.328378,7.321371 0.01542,-16.791941 0.01542,-16.791942 0.128915,-0.455425 c 0.535798,-1.892845 1.950164,-3.205546 3.801691,-3.528425 0.625595,-0.109095 0.963997,-0.108911 1.593506,8.67e-4 1.75558,0.306147 3.134552,1.524706 3.734243,3.299845 l 0.134623,0.398497 0.01479,16.921874 c 0.0081,9.307031 0.03352,16.921875 0.05641,16.921875 0.02289,0 3.320911,-3.27597 7.328932,-7.279932 8.013419,-8.005304 7.507335,-7.540286 8.633628,-7.933042 0.514967,-0.179578 0.56199,-0.185633 1.443161,-0.18585 0.796985,-1.71e-4 0.963972,0.01646 1.335804,0.133216 1.128279,0.354292 2.021162,1.024214 2.639227,1.980189 0.533193,0.824702 0.740566,1.540003 0.740566,2.554474 0,1.013673 -0.204595,1.719965 -0.742077,2.561764 -0.201104,0.314966 -2.648952,2.794959 -11.677898,11.831251 -6.729831,6.735306 -11.560952,11.527398 -11.75809,11.6631 -0.419627,0.288854 -1.034467,0.571854 -1.515533,0.697574 -0.499473,0.13053 -1.575097,0.163587 -2.049411,0.06298 z"
     id="path3787"
     inkscape:connector-curvature="0"
     transform="scale(0.31578947)" />
</svg>
